<?xml version="1.0" encoding="UTF-8"?>
<svg version="1.1" xmlns="http://www.w3.org/2000/svg" width="2000" height="2627">
<path d="M0 0 C4.00750997 1.12111477 8.01491793 2.24259373 12.02230835 3.36413574 C13.15065063 3.67978863 14.2789929 3.99544151 15.44152737 4.32065964 C23.33618002 6.53038366 31.2238088 8.76194883 39.1015625 11.03125 C40.92170113 11.55458168 40.92170113 11.55458168 42.77861023 12.08848572 C46.04555092 13.02803932 49.31210396 13.9689332 52.57852554 14.91028976 C54.67055412 15.51312683 56.76268196 16.11561842 58.85482788 16.7180481 C86.05386719 24.55103346 113.23103384 32.45871761 140.40478516 40.37890625 C143.75552335 41.35550478 147.10627189 42.33206782 150.45703125 43.30859375 C151.69536209 43.66949411 151.69536209 43.66949411 152.95870972 44.03768539 C169.43334893 48.83865254 185.91421204 53.61799898 202.39696884 58.39101028 C227.77104727 65.73876295 253.13775414 73.11150941 278.5 80.5 C303.01596627 87.64186068 327.53552485 94.77103564 352.0625 101.875 C378.97026896 109.6685347 405.87185568 117.48318136 432.77115631 125.30589294 C457.82303661 132.59128064 482.87775154 139.8667238 507.9375 147.125 C533.30657704 154.47286977 558.66745849 161.84861732 584.02516937 169.23561096 C607.69945749 176.13211026 631.37762663 183.01494101 655.0625 189.875 C681.97026896 197.6685347 708.87185568 205.48318136 735.77115631 213.30589294 C760.82303661 220.59128064 785.87775154 227.8667238 810.9375 235.125 C836.30657704 242.47286977 861.66745849 249.84861732 887.02516937 257.23561096 C910.69945749 264.13211026 934.37762663 271.01494101 958.0625 277.875 C984.97026896 285.6685347 1011.87185568 293.48318136 1038.77115631 301.30589294 C1063.82303661 308.59128064 1088.87775154 315.8667238 1113.9375 323.125 C1139.30657704 330.47286977 1164.66745849 337.84861732 1190.02516937 345.23561096 C1213.69945749 352.13211026 1237.37762663 359.01494101 1261.0625 365.875 C1287.97026896 373.6685347 1314.87185568 381.48318136 1341.77115631 389.30589294 C1366.82303661 396.59128064 1391.87775154 403.8667238 1416.9375 411.125 C1442.30657704 418.47286977 1467.66745849 425.84861732 1493.02516937 433.23561096 C1516.69945749 440.13211026 1540.37762663 447.01494101 1564.0625 453.875 C1590.96565609 461.66719863 1617.86264896 469.48044431 1644.7573204 477.30187607 C1664.54201416 483.05556382 1684.3269793 488.8082716 1704.1171875 494.54296875 C1704.87878426 494.76366657 1705.64038101 494.9843644 1706.42505646 495.21175003 C1712.8871641 497.08427731 1719.34934748 498.95654293 1725.81201172 500.82714844 C1751.21888328 508.1811692 1776.60807999 515.59402333 1802 523 C1802 572.83 1802 622.66 1802 674 C1805.3 674.66 1808.6 675.32 1812 676 C1815.23339112 676.81643966 1818.44990248 677.6545372 1821.66552734 678.53442383 C1823.02868828 678.90320396 1823.02868828 678.90320396 1824.41938782 679.2794342 C1827.39257574 680.08498492 1830.36434137 680.89562968 1833.3359375 681.70703125 C1835.42280335 682.27518604 1837.50968721 682.84327471 1839.59658813 683.41130066 C1843.95961053 684.59990413 1848.32182478 685.79142477 1852.68359375 686.98461914 C1858.24465652 688.50531666 1863.80852035 690.0154803 1869.37315941 691.52303028 C1873.68147505 692.69209015 1877.98777596 693.86844036 1882.29356766 695.04675865 C1884.34275098 695.60628016 1886.39264364 696.16321105 1888.44327927 696.71738625 C1914.13808188 703.66864844 1935.75263883 712.81012114 1949.72265625 736.98046875 C1953.12422736 743.44094656 1955.49122422 749.85773766 1957 757 C1957.26031331 758.19428789 1957.26031331 758.19428789 1957.52588547 759.41270281 C1958.21152038 764.60042862 1958.13814903 769.73970575 1958.12880117 774.9670676 C1958.13057618 776.19007952 1958.13235119 777.41309144 1958.13417998 778.67316433 C1958.13810739 782.0810981 1958.13754464 785.48897839 1958.13512228 788.89691009 C1958.13358164 792.61332381 1958.13783565 796.32973165 1958.14134905 800.04614341 C1958.14672738 806.58917956 1958.14836551 813.13220851 1958.1475983 819.6752467 C1958.14646403 829.47058202 1958.15104032 839.26590896 1958.15672914 849.06124241 C1958.16624696 865.75382736 1958.17094928 882.44641063 1958.17303848 899.13899803 C1958.17516582 916.0618941 1958.17942289 932.98478758 1958.1862812 949.90768242 C1958.18671182 950.97547318 1958.18714243 952.04326394 1958.1875861 953.14341199 C1958.18934441 957.4921831 1958.19111406 961.84095421 1958.19289912 966.18972532 C1958.21450666 1018.9327765 1958.22537894 1071.6758282 1958.23437535 1124.4188828 C1958.23730867 1141.52025721 1958.24067847 1158.6216315 1958.24434257 1175.72300577 C1958.24460086 1176.92920513 1958.24485915 1178.13540449 1958.24512527 1179.37815534 C1958.24617147 1184.25787202 1958.2472199 1189.1375887 1958.24827109 1194.01730538 C1958.26623615 1277.48576598 1958.28161588 1360.95422679 1958.28903012 1444.42268906 C1958.28961409 1450.98000321 1958.29021136 1457.53731735 1958.29080774 1464.0946315 C1958.29092586 1465.39540579 1958.29104398 1466.69618007 1958.29116567 1468.03637176 C1958.29236308 1481.21523419 1958.29357183 1494.39409662 1958.29479821 1507.57295905 C1958.29504344 1510.21537729 1958.2952873 1512.85779554 1958.29552978 1515.50021378 C1958.30332032 1600.37382652 1958.3257053 1685.24742543 1958.3582062 1770.12103213 C1958.38154866 1831.09860708 1958.40310206 1892.07617928 1958.41021252 1953.05375862 C1958.41035954 1954.30753104 1958.41050656 1955.56130345 1958.41065803 1956.85306897 C1958.41384271 1984.37529318 1958.41589371 2011.89751736 1958.41688558 2039.41974174 C1958.41730033 2050.49334025 1958.41785523 2061.56693876 1958.41844749 2072.64053726 C1958.4185385 2074.45846006 1958.4185385 2074.45846006 1958.41863134 2076.31310858 C1958.42064809 2115.36748655 1958.43489215 2154.42184821 1958.4553925 2193.47622049 C1958.47596601 2232.809434 1958.48387141 2272.14262864 1958.47431473 2311.47584699 C1958.47299626 2316.91000029 1958.47181822 2322.34415361 1958.47072411 2327.77830696 C1958.47050426 2328.84356048 1958.47028441 2329.90881399 1958.4700579 2331.00634792 C1958.46694244 2347.88017535 1958.47727451 2364.75396674 1958.49319966 2381.62778583 C1958.50857707 2398.21630923 1958.50971002 2414.80478272 1958.49565142 2431.39330785 C1958.48783612 2441.12073696 1958.4909689 2450.84801367 1958.51028858 2460.57542759 C1958.52202913 2467.03728177 1958.51923614 2473.49902469 1958.50467394 2479.96087286 C1958.49682662 2483.62301601 1958.49508825 2487.28486114 1958.51129298 2490.94698359 C1958.58253759 2508.14776158 1958.63732582 2524.63097525 1950.4375 2540.25 C1950.10234375 2540.90347412 1949.7671875 2541.55694824 1949.421875 2542.23022461 C1945.67042642 2549.16515652 1940.63932848 2554.56118098 1935 2560 C1934.36707031 2560.66386719 1933.73414063 2561.32773438 1933.08203125 2562.01171875 C1920.94565514 2573.93376592 1902.41424892 2579.18661192 1885.8125 2579.5625 C1879.13690841 2579.46186341 1872.959107 2578.5295082 1866.49731445 2576.89697266 C1865.14896373 2576.56576636 1865.14896373 2576.56576636 1863.7733736 2576.22786903 C1852.21278754 2573.35741164 1840.72225986 2570.21792206 1829.23046875 2567.0859375 C1826.72199415 2566.40482622 1824.2134471 2565.7239817 1821.70483398 2565.04338074 C1815.64507689 2563.39871922 1809.58630483 2561.75045759 1803.52788579 2560.10087472 C1798.54667551 2558.74468789 1793.56504724 2557.39004576 1788.5831604 2556.03634644 C1741.12455527 2543.14041432 1693.68286171 2530.18268115 1646.24780273 2517.20043945 C1645.58757311 2517.01974549 1644.92734349 2516.83905152 1644.24710691 2516.65288198 C1642.91228784 2516.28756359 1641.5774689 2515.92224472 1640.24265009 2515.55692536 C1637.56882292 2514.82514119 1634.89499423 2514.0933626 1632.22116399 2513.36158967 C1630.88401817 2512.99563964 1629.54687316 2512.62968667 1628.20972896 2512.26373076 C1596.91720222 2503.69953788 1565.61789923 2495.16024449 1534.31716204 2486.62611532 C1531.5605811 2485.87452874 1528.80400824 2485.12291253 1526.04743534 2484.37129647 C1514.31588568 2481.17253858 1502.5842902 2477.97394877 1490.85261536 2474.77565002 C1471.56291071 2469.51686541 1452.27351987 2464.25693124 1432.984375 2458.99609375 C1432.30398068 2458.81052642 1431.62358637 2458.62495909 1430.92257404 2458.43376851 C1424.73790529 2456.7469921 1418.55324006 2455.06020277 1412.36857986 2453.37339497 C1402.74606363 2450.74894464 1393.1235277 2448.12456651 1383.50097656 2445.50024414 C1382.82032245 2445.31461186 1382.13966834 2445.12897959 1381.43838835 2444.93772209 C1378.00067643 2444.00016803 1374.56296418 2443.06261521 1371.12525177 2442.12506294 C1364.93766069 2440.43754766 1358.7500726 2438.75002142 1352.56248426 2437.06249607 C1349.12498963 2436.12499693 1345.68749481 2435.1874985 1342.25 2434.25 C1340.875 2433.875 1339.5 2433.5 1338.125 2433.125 C1337.1040625 2432.8465625 1337.1040625 2432.8465625 1336.0625 2432.5625 C1268 2414 1199.9375 2395.4375 535.81250703 2214.31250185 C534.43748364 2213.93749551 533.06246019 2213.56248935 531.6874367 2213.18748337 C528.25029428 2212.25008171 524.81315269 2211.31267702 521.3760128 2210.37526608 C515.18424376 2208.68658847 508.99246888 2206.9979323 502.80066288 2205.30939025 C499.3575016 2204.37041914 495.91434521 2203.43143013 492.47119141 2202.49243164 C491.7896705 2202.30657127 491.10814959 2202.12071091 490.40597653 2201.92921841 C480.86624337 2199.32756089 471.32678152 2196.72491061 461.78749681 2194.12160933 C455.67870628 2192.45454146 449.56983372 2190.78777427 443.4609375 2189.12109375 C442.78771186 2188.93741265 442.11448623 2188.75373155 441.42085981 2188.56448436 C420.90939163 2182.96833281 400.39360536 2177.38822278 379.87521434 2171.81751049 C374.45332007 2170.34536544 369.03170794 2168.87218506 363.61029053 2167.39828491 C362.85347182 2167.19253204 362.0966531 2166.98677917 361.31690049 2166.77479136 C357.53188114 2165.74573064 353.74690069 2164.71652695 349.96194839 2163.68721962 C341.89865442 2161.49465476 333.8344265 2159.30558862 325.76894629 2157.1210795 C320.29667766 2155.63863052 314.8255126 2154.15215571 309.35517251 2152.66260618 C306.20741341 2151.80563484 303.05902988 2150.95109497 299.90959549 2150.10029793 C271.43025072 2142.40458631 246.82067022 2134.54104223 231 2108 C223.63371407 2094.54129713 222.56174192 2081.54935132 222.65942383 2066.56347656 C222.66027156 2064.72921767 222.65979212 2062.89495777 222.65809631 2061.06069946 C222.65724062 2056.11519604 222.6747969 2051.16991387 222.69581819 2046.22446156 C222.71465651 2041.04351251 222.71634104 2035.8625576 222.71989441 2030.68157959 C222.72919394 2020.88587411 222.75377925 2011.09026987 222.78394288 2001.29460883 C222.81755222 1990.13615327 222.83398929 1978.97769271 222.84902918 1967.81919909 C222.88033077 1944.87941008 222.93305034 1921.93971073 223 1899 C221.93750377 1898.73733086 220.87500753 1898.47466171 219.78031445 1898.2040329 C205.85482147 1894.75009212 205.85482147 1894.75009212 199.02661133 1892.75195312 C198.03130386 1892.46211328 198.03130386 1892.46211328 197.01588917 1892.16641808 C194.87041889 1891.5409002 192.72623102 1890.91110768 190.58203125 1890.28125 C189.02338878 1889.82597738 187.46466023 1889.3709994 185.90585327 1888.91629028 C182.59561064 1887.95009736 179.28591142 1886.98207429 175.97665405 1886.01251221 C170.71816068 1884.47190389 165.45845308 1882.93547167 160.19848633 1881.39990234 C158.40129081 1880.87521392 156.60409537 1880.3505252 154.80690002 1879.82583618 C153.91325808 1879.56494831 153.01961613 1879.30406044 152.09889412 1879.03526688 C149.37471564 1878.23982327 146.65065511 1877.44397684 143.92662048 1876.64804077 C128.81697578 1872.23384945 113.69891671 1867.84908018 98.5778532 1863.47419071 C75.5935439 1856.82422273 52.61334705 1850.15981808 29.64639282 1843.45013428 C27.06736373 1842.69677806 24.48790643 1841.94491681 21.90805054 1841.19439697 C18.39089982 1840.17049508 14.87497413 1839.14249583 11.359375 1838.11328125 C10.31519913 1837.81016525 9.27102325 1837.50704926 8.19520569 1837.19474792 C6.78325172 1836.77990898 6.78325172 1836.77990898 5.34277344 1836.35668945 C4.52274841 1836.11723099 3.70272339 1835.87777252 2.85784912 1835.63105774 C1 1835 1 1835 0 1834 C-0.09777878 1832.35259596 -0.12478365 1830.70096348 -0.12467116 1829.05066025 C-0.12820051 1827.4279151 -0.12820051 1827.4279151 -0.13180115 1825.77238722 C-0.12929228 1824.56582558 -0.1267834 1823.35926394 -0.1241985 1822.11613983 C-0.12547658 1820.84128203 -0.12675467 1819.56642424 -0.12807148 1818.25293439 C-0.13151199 1814.67602701 -0.12864093 1811.09914709 -0.12483745 1807.52224108 C-0.12179305 1803.63080401 -0.12452685 1799.73937047 -0.12654433 1795.84793332 C-0.12928997 1788.98860862 -0.12827547 1782.1292922 -0.12488318 1775.26996791 C-0.11982459 1765.00129878 -0.12050639 1754.73263562 -0.12234976 1744.4639657 C-0.12532238 1726.96740553 -0.12353476 1709.47084869 -0.11920547 1691.97428894 C-0.11483461 1674.23174056 -0.11263205 1656.48919391 -0.11310768 1638.74664497 C-0.11313637 1637.62798478 -0.11316507 1636.50932459 -0.11319463 1635.3567656 C-0.11335099 1629.65319103 -0.11354294 1623.94961645 -0.11374746 1618.24604188 C-0.11515674 1576.91234306 -0.11171799 1535.57864578 -0.10573006 1494.24494743 C-0.09981226 1453.29773895 -0.0959559 1412.35053113 -0.09487724 1371.40332222 C-0.09482563 1369.49746208 -0.09482563 1369.49746208 -0.09477296 1367.55309972 C-0.09445978 1355.94876419 -0.09417208 1344.34442866 -0.09391499 1332.74009313 C-0.09327551 1303.89002251 -0.09231613 1275.03995192 -0.09113979 1246.18988132 C-0.09105982 1244.21899389 -0.09105982 1244.21899389 -0.09097823 1242.20829054 C-0.08926019 1200.32090998 -0.08621839 1158.43352964 -0.08213139 1116.54614925 C-0.0820651 1115.86664346 -0.08199881 1115.18713766 -0.08193051 1114.48704079 C-0.07990977 1093.80179837 -0.0777914 1073.11655596 -0.07565394 1052.43131356 C-0.073289 1029.54041103 -0.0709407 1006.6495085 -0.06866455 983.75860596 C-0.06859605 983.07027969 -0.06852755 982.38195343 -0.06845698 981.67276879 C-0.06195804 916.3121126 -0.05814638 850.95145634 -0.05503077 785.59079991 C-0.05489862 782.82276468 -0.0547657 780.05472946 -0.05463275 777.28669424 C-0.05340936 751.81486895 -0.05221752 726.34304367 -0.05106533 700.87121838 C-0.05103469 700.19390671 -0.05100405 699.51659504 -0.05097248 698.81875878 C-0.05087972 696.76804133 -0.05078697 694.71732388 -0.05069422 692.66660643 C-0.04821781 637.91633303 -0.04547588 583.16605964 -0.04255217 528.41578626 C-0.04241293 525.80829878 -0.04227388 523.2008113 -0.04213501 520.59332383 C-0.03588007 403.17541554 -0.02654155 285.75750757 -0.01586914 168.33959961 C-0.01576921 167.23989356 -0.01566927 166.14018751 -0.01556631 165.00715703 C-0.01056561 110.00477134 -0.00539152 55.00238566 0 0 Z M66 79 C66 644.95 66 1210.9 66 1794 C70.72695612 1795.77260854 75.18340931 1797.42774742 79.98852539 1798.81152344 C81.11720535 1799.13830078 82.24588531 1799.46507812 83.4087677 1799.80175781 C84.62610092 1800.15077148 85.84343414 1800.49978516 87.09765625 1800.859375 C88.41823294 1801.24058704 89.7387209 1801.62210655 91.05912781 1802.00390625 C93.90190628 1802.82530287 96.74522334 1803.64479717 99.58898926 1804.46276855 C106.47992411 1806.44492673 113.3682281 1808.4361996 120.25687027 1810.42630768 C122.70240598 1811.13269044 125.14805802 1811.83866945 127.59371948 1812.5446167 C140.10317038 1816.15663853 152.60561931 1819.79240253 165.10546875 1823.4375 C166.01459078 1823.70255592 166.92371281 1823.96761185 167.86038399 1824.24069977 C175.93880402 1826.59598291 184.01704281 1828.95188579 192.09451294 1831.3104248 C196.29594922 1832.53717625 200.49773732 1833.76271538 204.6997776 1834.98739624 C206.25484354 1835.44089664 207.80976572 1835.89489028 209.36453819 1836.34939575 C211.48583984 1836.96948858 213.60760472 1837.58797001 215.72949219 1838.20605469 C216.92257996 1838.55432312 218.11566772 1838.90259155 219.34490967 1839.26141357 C221.70125219 1840.0446669 221.70125219 1840.0446669 223 1840 C223.00040018 1838.68855513 223.00080037 1837.37711026 223.00121268 1836.02592464 C223.01493742 1791.12315855 223.02932761 1746.22039268 223.04418945 1701.31762695 C223.04448879 1700.41304285 223.04478813 1699.50845874 223.04509654 1698.576463 C223.0771871 1601.65637528 223.11365462 1504.73629038 223.15898132 1407.81620789 C223.15998695 1405.66354308 223.16099257 1403.51087827 223.16199819 1401.35821346 C223.18311939 1356.17398932 223.20485656 1310.98976549 223.22730538 1265.80554199 C223.23858137 1243.10827378 223.24973899 1220.41100552 223.26078469 1197.71373721 C223.26245158 1194.28992325 223.26412186 1190.8661093 223.26579228 1187.44229534 C223.29148694 1134.71551906 223.31464167 1081.98874316 223.33044434 1029.26196289 C223.3307842 1028.12814526 223.33112406 1026.99432764 223.33147423 1025.8261519 C223.33693847 1007.5454594 223.3421897 989.26476683 223.34741267 970.98407426 C223.36245823 918.3350311 223.37907688 865.68599058 223.40612316 813.03695202 C223.40667849 811.95444036 223.40723382 810.8719287 223.40780597 809.75661366 C223.4200246 785.99379198 223.43305343 762.23097083 223.44684957 738.46815002 C223.45238626 728.9070269 223.4578063 719.34590371 223.46318626 709.7847805 C223.46407371 708.21513821 223.46407371 708.21513821 223.46497908 706.61378598 C223.48398859 672.8886347 223.49349952 639.16348893 223.49803595 605.43833284 C223.5026485 571.47014123 223.51656107 537.50196721 223.54342634 503.5337855 C223.54713541 498.84111835 223.55073768 494.14845112 223.55427551 489.45578384 C223.5549729 488.53587687 223.55567029 487.61596989 223.55638881 486.66818694 C223.56716051 472.09430919 223.56785948 457.52044898 223.56436801 442.94656839 C223.56114245 428.62030686 223.56855459 414.29408377 223.58732411 399.96783381 C223.59800986 391.56599119 223.60049 383.16424269 223.59086547 374.76239824 C223.58463585 368.52779816 223.59398596 362.29331326 223.60944067 356.05873126 C223.61323891 353.54990363 223.61199952 351.04106214 223.60515601 348.53224098 C223.53175042 319.32714509 223.53175042 319.32714509 230.6875 305.8125 C231.03562744 305.13960937 231.38375488 304.46671875 231.74243164 303.7734375 C240.59752613 287.17436675 255.14053388 275.18467963 273.0625 269.5625 C275.03263379 269.00847751 277.0115353 268.48412414 279 268 C279.74894531 267.81566406 280.49789062 267.63132812 281.26953125 267.44140625 C295.33508712 265.16757533 308.64193268 266.98990673 322.26171875 270.703125 C323.77750798 271.10563541 325.29357584 271.50709773 326.80989075 271.90762329 C330.98905176 273.01630903 335.16284696 274.14403048 339.33544922 275.2771225 C342.03837252 276.01041025 344.74230004 276.73988137 347.4465332 277.46832275 C360.88077711 281.08883332 374.30283564 284.75339056 387.72266388 288.42691803 C393.69982853 290.06244763 399.67785348 291.69482749 405.65576172 293.32763672 C419.14230693 297.01198454 432.62772163 300.70045813 446.11295557 304.38960135 C453.23905889 306.33903894 460.36536839 308.28772241 467.49169922 310.23632812 C468.78311955 310.58945422 470.07453985 310.94258043 471.36596012 311.29570675 C473.95459776 312.00354238 476.54323664 312.71137345 479.13187599 313.4192028 C485.66614134 315.20591772 492.20038274 316.99272023 498.73461914 318.77954102 C499.38628551 318.95774136 500.03795189 319.1359417 500.70936573 319.31954205 C508.70757026 321.50668487 516.7057111 323.6940604 524.70377582 325.8817144 C565.0480322 336.91677277 605.39699559 347.93447502 645.75 358.9375 C646.43141839 359.12330281 647.11283678 359.30910563 647.81490421 359.50053883 C660.92574585 363.07546806 674.03667098 366.65009102 687.14767456 370.22442627 C706.43728156 375.48318915 725.72657654 380.74309505 745.015625 386.00390625 C745.69601932 386.18947358 746.37641363 386.37504091 747.07742596 386.56623149 C753.26209471 388.2530079 759.44675994 389.93979723 765.63142014 391.62660503 C775.25393637 394.25105536 784.8764723 396.87543349 794.49902344 399.49975586 C795.17967755 399.68538814 795.86033166 399.87102041 796.56161165 400.06227791 C799.99932357 400.99983197 803.43703582 401.93738479 806.87474823 402.87493706 C813.06233931 404.56245234 819.2499274 406.24997858 825.43751574 407.93750393 C828.87501037 408.87500307 832.31250519 409.8125015 835.75 410.75 C837.125 411.125 838.5 411.5 839.875 411.875 C840.555625 412.060625 841.23625 412.24625 841.9375 412.4375 C944.03125 440.28125 944.03125 440.28125 1376.125 558.125 C1377.14593653 558.40343723 1377.14593653 558.40343723 1378.18749803 558.68749946 C1381.28126475 559.53125402 1381.28126475 559.53125402 1384.37503147 560.37500858 C1385.05565777 560.56063394 1385.73628407 560.74625929 1386.43753541 560.93750966 C1388.49995279 561.49998713 1388.49995279 561.49998713 1390.56237018 562.06246459 C1391.58323174 562.34088138 1391.58323174 562.34088138 1392.62471676 562.62492275 C1393.30530087 562.8105366 1393.98588497 562.99615045 1394.68709284 563.18738896 C1395.70798263 563.46581345 1395.70798263 563.46581345 1396.74949646 563.74986267 C1398.81202531 564.31237054 1400.87455416 564.87487841 1402.93708301 565.43738627 C1403.61784561 565.6230488 1404.29860822 565.80871133 1405 566 C1407.06353855 566.56278324 1407.06353855 566.56278324 1409.1270771 567.12556648 C1409.80810908 567.31130248 1410.48914107 567.49703847 1411.19081038 567.68840283 C1412.566567 568.06360918 1413.94232363 568.43881553 1415.31808025 568.81402189 C1415.99901357 568.99973097 1416.67994689 569.18544006 1417.38151455 569.3767767 C1419.44478166 569.93948591 1421.50804877 570.50219512 1423.57131588 571.06490433 C1424.25211614 571.25057713 1424.9329164 571.43624993 1425.63434696 571.62754917 C1429.75623131 572.75169945 1433.87811565 573.87584972 1438 575 C1438.67843885 575.18502878 1439.3568777 575.37005755 1440.0558753 575.56069326 C1444.16210926 576.68057525 1448.26834321 577.80045724 1452.37457716 578.92033923 C1453.39076913 579.19748249 1453.39076913 579.19748249 1454.42749023 579.48022461 C1456.48182935 580.04049891 1458.53616846 580.60077322 1460.59050757 581.16104752 C1461.26874325 581.34602089 1461.94697893 581.53099425 1462.64576721 581.72157288 C1466.07295251 582.65625978 1469.50013781 583.59094667 1472.9273231 584.52563357 C1473.60600861 584.71072962 1474.28469411 584.89582567 1474.98394585 585.08653069 C1476.35611343 585.46075821 1477.72828102 585.83498573 1479.10044861 586.20921326 C1480.1205887 586.48743328 1480.1205887 586.48743328 1481.16133767 586.77127391 C1482.18237156 587.0497377 1482.18237156 587.0497377 1483.2240324 587.33382702 C1483.90534674 587.51964002 1484.58666108 587.70545302 1485.28862131 587.89689672 C1486.66662419 588.27271569 1488.04462707 588.64853466 1489.42262995 589.02435362 C1490.10576176 589.2106623 1490.78889356 589.39697097 1491.49272633 589.58892536 C1494.96201229 590.53509426 1498.43129826 591.48126316 1501.90058422 592.42743206 C1502.93979503 592.71085319 1502.93979503 592.71085319 1504 593 C1506.11549759 593.57695389 1506.11549759 593.57695389 1508.23099518 594.15390778 C1508.93224713 594.3451583 1509.63349907 594.53640883 1510.35600108 594.73345482 C1511.77676796 595.12093671 1513.19753483 595.50841864 1514.61830169 595.89590061 C1518.18291817 596.86806893 1521.74753484 597.84023655 1525.31215191 598.81240273 C1531.73099162 600.5629923 1538.14983001 602.31358671 1544.56866115 604.06420767 C1548.11502772 605.03141534 1551.6613954 605.99861892 1555.20776367 606.96582031 C1556.25764589 607.25215493 1556.25764589 607.25215493 1557.32873785 607.54427409 C1567.04987002 610.1955121 1576.77106358 612.84652486 1586.49230015 615.49738002 C1592.55477622 617.15054714 1598.61723452 618.80377946 1604.6796875 620.45703125 C1605.33766728 620.63646318 1605.99564706 620.81589511 1606.67356563 621.00076437 C1625.31663946 626.08478363 1643.9587596 631.17228168 1662.6000309 636.26290703 C1669.65004091 638.18801722 1676.70022147 640.11250271 1683.75040722 642.03696918 C1690.28106271 643.81971342 1696.81141457 645.60356429 1703.34153366 647.38827229 C1707.27665331 648.4634868 1711.21205159 649.5376785 1715.14753342 650.61156654 C1716.95707721 651.10557917 1718.76649988 651.60003572 1720.57579422 652.09496117 C1723.01465356 652.7620508 1725.45392404 653.42761458 1727.89331055 654.09277344 C1728.96594949 654.38678213 1728.96594949 654.38678213 1730.06025791 654.68673038 C1732.98829313 655.6093516 1732.98829313 655.6093516 1736 656 C1736 625.64 1736 595.28 1736 564 C1731.63363492 562.12870068 1727.87048883 560.55269802 1723.40039062 559.28027344 C1722.33125427 558.97338593 1721.26211792 558.66649841 1720.1605835 558.35031128 C1718.42593842 557.85979782 1718.42593842 557.85979782 1716.65625 557.359375 C1714.75320532 556.81477006 1712.85016173 556.27016134 1710.947155 555.72542381 C1708.89602498 555.13916358 1706.84428072 554.55509941 1704.7923584 553.97161865 C1698.09654193 552.06718712 1691.40512004 550.14739293 1684.71321869 548.22925949 C1682.33310148 547.54715795 1679.95283904 546.86556477 1677.5725708 546.18399048 C1660.76705509 541.36964088 1643.98266742 536.48323818 1627.20015717 531.58940506 C1623.07253473 530.38589273 1618.9447064 529.18308701 1614.81689453 527.98022461 C1613.1391898 527.49132076 1611.46148594 527.00241388 1609.78378296 526.51350403 C1608.94821239 526.27000528 1608.11264183 526.02650654 1607.25175095 525.77562904 C1604.70367216 525.0330389 1602.15562086 524.29035447 1599.60757446 523.5476532 C1580.77939438 518.05992138 1561.94792174 512.58351935 1543.11582947 507.10923004 C1540.37217409 506.31167854 1537.6285309 505.5140851 1534.8848877 504.7164917 C1509.71308654 497.39914515 1484.5377082 490.09422765 1459.35906982 482.80044556 C1433.97716491 475.44765038 1408.60168535 468.07284312 1383.22742844 460.6937027 C1358.17601295 453.40847357 1333.12177725 446.13313972 1308.0625 438.875 C1282.69342296 431.52713023 1257.33254151 424.15138268 1231.97483063 416.76438904 C1208.30054251 409.86788974 1184.62237337 402.98505899 1160.9375 396.125 C1134.95374117 388.59909452 1108.97559972 381.05401817 1083 373.5 C1057.860306 366.18915226 1032.71878189 358.88474776 1007.57149124 351.60007095 C981.39779739 344.018058 955.22871287 336.42029097 929.0625 328.8125 C928.16357655 328.55114384 927.26465309 328.28978767 926.33848953 328.02051163 C911.6335204 323.74511599 896.9287707 319.46896586 882.2240448 315.19273376 C868.46196529 311.19063803 854.69981019 307.18880241 840.9375 303.1875 C840.03720692 302.925741 839.13691383 302.66398201 838.20933914 302.39429092 C812.26223058 294.85029993 786.31164983 287.31840652 760.35714722 279.79989624 C734.97484129 272.44698782 709.5990002 265.07193257 684.2243042 257.69281006 C660.00980869 250.6511412 635.79327064 243.61664531 611.57149124 236.60007095 C585.39779739 229.018058 559.22871287 221.42029097 533.0625 213.8125 C532.16357655 213.55114384 531.26465309 213.28978767 530.33848953 213.02051163 C515.6335204 208.74511599 500.9287707 204.46896586 486.2240448 200.19273376 C472.46196529 196.19063803 458.69981019 192.18880241 444.9375 188.1875 C444.03720692 187.925741 443.13691383 187.66398201 442.20933914 187.39429092 C416.26223058 179.85029993 390.31164983 172.31840652 364.35714722 164.79989624 C338.97588173 157.44728922 313.60104533 150.07265699 288.22742844 142.6937027 C263.17601293 135.40847356 238.12177318 128.13315384 213.0625 120.875 C183.67054557 112.36190895 154.28876238 103.81404534 124.91041088 95.25413513 C121.04907567 94.12911717 117.1875893 93.00462426 113.32572937 91.88140869 C106.59933221 89.92470741 99.87388136 87.96510107 93.15346718 85.98793125 C90.2461016 85.13299761 87.33787652 84.28101214 84.4295311 83.42941856 C83.06827347 83.02995416 81.70743601 82.62905481 80.34704971 82.22663307 C78.48877858 81.67701788 76.62894906 81.13267982 74.76904297 80.58862305 C73.72231415 80.28039108 72.67558533 79.97215912 71.59713745 79.65458679 C68.96155572 78.87780077 68.96155572 78.87780077 66 79 Z " fill="#EBAB56" transform="translate(21,21)"/>
<path d="M0 0 C6.65888053 1.33177611 13.13636714 2.74785948 19.66552734 4.53442383 C21.02868828 4.90320396 21.02868828 4.90320396 22.41938782 5.2794342 C25.39257574 6.08498492 28.36434137 6.89562968 31.3359375 7.70703125 C33.42280335 8.27518604 35.50968721 8.84327471 37.59658813 9.41130066 C41.95961053 10.59990413 46.32182478 11.79142477 50.68359375 12.98461914 C56.24465652 14.50531666 61.80852035 16.0154803 67.37315941 17.52303028 C71.68147505 18.69209015 75.98777596 19.86844036 80.29356766 21.04675865 C82.34275098 21.60628016 84.39264364 22.16321105 86.44327927 22.71738625 C112.13808188 29.66864844 133.75263883 38.81012114 147.72265625 62.98046875 C151.12422736 69.44094656 153.49122422 75.85773766 155 83 C155.17354221 83.79619193 155.34708441 84.59238385 155.52588547 85.41270281 C156.21152038 90.60042862 156.13814903 95.73970575 156.12880117 100.9670676 C156.13057618 102.19007952 156.13235119 103.41309144 156.13417998 104.67316433 C156.13810739 108.0810981 156.13754464 111.48897839 156.13512228 114.89691009 C156.13358164 118.61332381 156.13783565 122.32973165 156.14134905 126.04614341 C156.14672738 132.58917956 156.14836551 139.13220851 156.1475983 145.6752467 C156.14646403 155.47058202 156.15104032 165.26590896 156.15672914 175.06124241 C156.16624696 191.75382736 156.17094928 208.44641063 156.17303848 225.13899803 C156.17516582 242.0618941 156.17942289 258.98478758 156.1862812 275.90768242 C156.18671182 276.97547318 156.18714243 278.04326394 156.1875861 279.14341199 C156.18934441 283.4921831 156.19111406 287.84095421 156.19289912 292.18972532 C156.21450666 344.9327765 156.22537894 397.6758282 156.23437535 450.4188828 C156.23730867 467.52025721 156.24067847 484.6216315 156.24434257 501.72300577 C156.24460086 502.92920513 156.24485915 504.13540449 156.24512527 505.37815534 C156.24617147 510.25787202 156.2472199 515.1375887 156.24827109 520.01730538 C156.26623615 603.48576598 156.28161588 686.95422679 156.28903012 770.42268906 C156.28961409 776.98000321 156.29021136 783.53731735 156.29080774 790.0946315 C156.29092586 791.39540579 156.29104398 792.69618007 156.29116567 794.03637176 C156.29236308 807.21523419 156.29357183 820.39409662 156.29479821 833.57295905 C156.29504344 836.21537729 156.2952873 838.85779554 156.29552978 841.50021378 C156.30332032 926.37382652 156.3257053 1011.24742543 156.3582062 1096.12103213 C156.38154866 1157.09860708 156.40310206 1218.07617928 156.41021252 1279.05375862 C156.41035954 1280.30753104 156.41050656 1281.56130345 156.41065803 1282.85306897 C156.41384271 1310.37529318 156.41589371 1337.89751736 156.41688558 1365.41974174 C156.41730033 1376.49334025 156.41785523 1387.56693876 156.41844749 1398.64053726 C156.4185385 1400.45846006 156.4185385 1400.45846006 156.41863134 1402.31310858 C156.42064809 1441.36748655 156.43489215 1480.42184821 156.4553925 1519.47622049 C156.47596601 1558.809434 156.48387141 1598.14262864 156.47431473 1637.47584699 C156.47299626 1642.91000029 156.47181822 1648.34415361 156.47072411 1653.77830696 C156.47050426 1654.84356048 156.47028441 1655.90881399 156.4700579 1657.00634792 C156.46694244 1673.88017535 156.47727451 1690.75396674 156.49319966 1707.62778583 C156.50857707 1724.21630923 156.50971002 1740.80478272 156.49565142 1757.39330785 C156.48783612 1767.12073696 156.4909689 1776.84801367 156.51028858 1786.57542759 C156.52202913 1793.03728177 156.51923614 1799.49902469 156.50467394 1805.96087286 C156.49682662 1809.62301601 156.49508825 1813.28486114 156.51129298 1816.94698359 C156.58253759 1834.14776158 156.63732582 1850.63097525 148.4375 1866.25 C148.10234375 1866.90347412 147.7671875 1867.55694824 147.421875 1868.23022461 C143.67042642 1875.16515652 138.63932848 1880.56118098 133 1886 C132.36707031 1886.66386719 131.73414063 1887.32773438 131.08203125 1888.01171875 C118.94565514 1899.93376592 100.41424892 1905.18661192 83.8125 1905.5625 C77.13690841 1905.46186341 70.959107 1904.5295082 64.49731445 1902.89697266 C63.14896373 1902.56576636 63.14896373 1902.56576636 61.7733736 1902.22786903 C50.21278754 1899.35741164 38.72225986 1896.21792206 27.23046875 1893.0859375 C24.72199415 1892.40482622 22.2134471 1891.7239817 19.70483398 1891.04338074 C13.64507689 1889.39871922 7.58630483 1887.75045759 1.52788579 1886.10087472 C-3.45332449 1884.74468789 -8.43495276 1883.39004576 -13.4168396 1882.03634644 C-60.87544473 1869.14041432 -108.31713829 1856.18268115 -155.75219727 1843.20043945 C-156.7425417 1842.9293985 -156.7425417 1842.9293985 -157.75289309 1842.65288198 C-159.08771216 1842.28756359 -160.4225311 1841.92224472 -161.75734991 1841.55692536 C-164.43117708 1840.82514119 -167.10500577 1840.0933626 -169.77883601 1839.36158967 C-171.11598183 1838.99563964 -172.45312684 1838.62968667 -173.79027104 1838.26373076 C-205.08279778 1829.69953788 -236.38210077 1821.16024449 -267.68283796 1812.62611532 C-270.4394189 1811.87452874 -273.19599176 1811.12291253 -275.95256466 1810.37129647 C-287.68411432 1807.17253858 -299.4157098 1803.97394877 -311.14738464 1800.77565002 C-330.43708929 1795.51686541 -349.72648013 1790.25693124 -369.015625 1784.99609375 C-369.69601932 1784.81052642 -370.37641363 1784.62495909 -371.07742596 1784.43376851 C-377.26209471 1782.7469921 -383.44675994 1781.06020277 -389.63142014 1779.37339497 C-399.25393637 1776.74894464 -408.8764723 1774.12456651 -418.49902344 1771.50024414 C-419.17967755 1771.31461186 -419.86033166 1771.12897959 -420.56161165 1770.93772209 C-423.99932357 1770.00016803 -427.43703582 1769.06261521 -430.87474823 1768.12506294 C-437.06233931 1766.43754766 -443.2499274 1764.75002142 -449.43751574 1763.06249607 C-452.87501037 1762.12499693 -456.31250519 1761.1874985 -459.75 1760.25 C-461.125 1759.875 -462.5 1759.5 -463.875 1759.125 C-464.555625 1758.939375 -465.23625 1758.75375 -465.9375 1758.5625 C-534 1740 -602.0625 1721.4375 -1266.18749297 1540.31250185 C-1267.56251636 1539.93749551 -1268.93753981 1539.56248935 -1270.3125633 1539.18748337 C-1273.74970572 1538.25008171 -1277.18684731 1537.31267702 -1280.6239872 1536.37526608 C-1286.81575624 1534.68658847 -1293.00753112 1532.9979323 -1299.19933712 1531.30939025 C-1302.6424984 1530.37041914 -1306.08565479 1529.43143013 -1309.52880859 1528.49243164 C-1310.2103295 1528.30657127 -1310.89185041 1528.12071091 -1311.59402347 1527.92921841 C-1321.13375663 1525.32756089 -1330.67321848 1522.72491061 -1340.21250319 1520.12160933 C-1346.32129372 1518.45454146 -1352.43016628 1516.78777427 -1358.5390625 1515.12109375 C-1359.21228814 1514.93741265 -1359.88551377 1514.75373155 -1360.57914019 1514.56448436 C-1381.09060837 1508.96833281 -1401.60639464 1503.38822278 -1422.12478566 1497.81751049 C-1427.54667993 1496.34536544 -1432.96829206 1494.87218506 -1438.38970947 1493.39828491 C-1439.14652818 1493.19253204 -1439.9033469 1492.98677917 -1440.68309951 1492.77479136 C-1444.46811886 1491.74573064 -1448.25309931 1490.71652695 -1452.03805161 1489.68721962 C-1460.10134558 1487.49465476 -1468.1655735 1485.30558862 -1476.23105371 1483.1210795 C-1481.70332234 1481.63863052 -1487.1744874 1480.15215571 -1492.64482749 1478.66260618 C-1495.79258659 1477.80563484 -1498.94097012 1476.95109497 -1502.09040451 1476.10029793 C-1530.56974928 1468.40458631 -1555.17932978 1460.54104223 -1571 1434 C-1578.36628593 1420.54129713 -1579.43825808 1407.54935132 -1579.34057617 1392.56347656 C-1579.33972844 1390.72921767 -1579.34020788 1388.89495777 -1579.34190369 1387.06069946 C-1579.34275938 1382.11519604 -1579.3252031 1377.16991387 -1579.30418181 1372.22446156 C-1579.28534349 1367.04351251 -1579.28365896 1361.8625576 -1579.28010559 1356.68157959 C-1579.27080606 1346.88587411 -1579.24622075 1337.09026987 -1579.21605712 1327.29460883 C-1579.18244778 1316.13615327 -1579.16601071 1304.97769271 -1579.15097082 1293.81919909 C-1579.11966923 1270.87941008 -1579.06694966 1247.93971073 -1579 1225 C-1577.41324784 1225.30993853 -1575.82689996 1225.62194724 -1574.24072266 1225.93481445 C-1573.3572818 1226.10833939 -1572.47384094 1226.28186432 -1571.56362915 1226.46064758 C-1568.10651613 1227.18797675 -1564.75497799 1228.16230999 -1561.375 1229.1875 C-1559.89857402 1229.63066343 -1558.42200268 1230.07334274 -1556.9453125 1230.515625 C-1555.76050293 1230.87237305 -1555.76050293 1230.87237305 -1554.55175781 1231.23632812 C-1549.79160829 1232.66091172 -1545.02033989 1234.04749998 -1540.25 1235.4375 C-1538.72209839 1235.88331421 -1538.72209839 1235.88331421 -1537.16333008 1236.33813477 C-1529.59510388 1238.54346552 -1522.0173111 1240.71394496 -1514.43579102 1242.87304688 C-1507.79939854 1244.76537436 -1501.17712654 1246.70254489 -1494.55859375 1248.65625 C-1480.53657396 1252.79420353 -1466.4965337 1256.86876064 -1452.43579102 1260.87304688 C-1445.79939854 1262.76537436 -1439.17712654 1264.70254489 -1432.55859375 1266.65625 C-1418.53657396 1270.79420353 -1404.4965337 1274.86876064 -1390.43579102 1278.87304688 C-1383.79939854 1280.76537436 -1377.17712654 1282.70254489 -1370.55859375 1284.65625 C-1356.53657396 1288.79420353 -1342.4965337 1292.86876064 -1328.43579102 1296.87304688 C-1321.79939854 1298.76537436 -1315.17712654 1300.70254489 -1308.55859375 1302.65625 C-1295.70088285 1306.45061137 -1282.83094787 1310.20386065 -1269.9375 1313.875 C-1257.28952008 1317.47651655 -1244.66382312 1321.15481152 -1232.03613281 1324.82666016 C-1226.1670902 1326.53308951 -1220.29723922 1328.23673395 -1214.4274292 1329.94052124 C-1211.20158449 1330.87689369 -1207.97579512 1331.81345673 -1204.75 1332.75 C-1203.4583336 1333.12500091 -1202.16666693 1333.50000091 -1200.875 1333.875 C-1100.12500002 1363.12499999 -1100.12500002 1363.12499999 -1098.18756104 1363.68748474 C-1096.89569268 1364.06254166 -1095.60382256 1364.43759252 -1094.31195068 1364.81263733 C-1091.0858555 1365.74921693 -1087.85979077 1366.68590118 -1084.63378906 1367.62280273 C-1078.78475006 1369.32137983 -1072.93548405 1371.0191555 -1067.08509827 1372.71308899 C-1052.71448442 1376.87407542 -1038.35450341 1381.06814562 -1024.01342773 1385.33007812 C-1017.57888357 1387.24089889 -1011.13824411 1389.12117342 -1004.6796875 1390.94921875 C-999.59236111 1392.40196907 -994.51549402 1393.8900088 -989.4375 1395.375 C-981.65300751 1397.65064475 -973.86289473 1399.90447606 -966.0625 1402.125 C-958.54976009 1404.26441264 -951.05039107 1406.44476852 -943.55859375 1408.65625 C-930.70088285 1412.45061137 -917.83094787 1416.20386065 -904.9375 1419.875 C-892.28952008 1423.47651655 -879.66382312 1427.15481152 -867.03613281 1430.82666016 C-861.1670902 1432.53308951 -855.29723922 1434.23673395 -849.4274292 1435.94052124 C-846.20158449 1436.87689369 -842.97579512 1437.81345673 -839.75 1438.75 C-838.4583336 1439.12500091 -837.16666693 1439.50000091 -835.875 1439.875 C-735.12500005 1469.12499999 -735.12500005 1469.12499999 -733.18756104 1469.68748474 C-731.89569268 1470.06254166 -730.60382256 1470.43759252 -729.31195068 1470.81263733 C-726.0858555 1471.74921693 -722.85979077 1472.68590118 -719.63378906 1473.62280273 C-713.78475006 1475.32137983 -707.93548405 1477.0191555 -702.08509827 1478.71308899 C-687.71448442 1482.87407542 -673.35450341 1487.06814562 -659.01342773 1491.33007812 C-652.57888357 1493.24089889 -646.13824411 1495.12117342 -639.6796875 1496.94921875 C-634.59236111 1498.40196907 -629.51549402 1499.8900088 -624.4375 1501.375 C-616.65300751 1503.65064475 -608.86289473 1505.90447606 -601.0625 1508.125 C-594.24790217 1510.06560182 -587.44241763 1512.03343961 -580.64697266 1514.04003906 C-571.48030904 1516.74677303 -562.30225603 1519.41446772 -553.12597656 1522.08837891 C-550.0393106 1522.98853594 -546.95316805 1523.890465 -543.8671875 1524.79296875 C-533.39879155 1527.85319448 -522.92354038 1530.88629019 -512.43408203 1533.87353516 C-505.79825875 1535.76569782 -499.1765582 1537.70271266 -492.55859375 1539.65625 C-478.53657396 1543.79420353 -464.4965337 1547.86876064 -450.43579102 1551.87304688 C-443.79939854 1553.76537436 -437.17712654 1555.70254489 -430.55859375 1557.65625 C-416.53657396 1561.79420353 -402.4965337 1565.86876064 -388.43579102 1569.87304688 C-381.79939854 1571.76537436 -375.17712654 1573.70254489 -368.55859375 1575.65625 C-354.53657396 1579.79420353 -340.4965337 1583.86876064 -326.43579102 1587.87304688 C-319.79939854 1589.76537436 -313.17712654 1591.70254489 -306.55859375 1593.65625 C-293.70088309 1597.45061129 -280.83095232 1601.20387693 -267.9375 1604.875 C-250.31351322 1609.8932273 -232.71564825 1615.00756973 -215.13989258 1620.19213867 C-207.18454001 1622.5382935 -199.2207292 1624.855457 -191.2578125 1627.17578125 C-187.12700607 1628.37947274 -182.99681731 1629.58524683 -178.8671875 1630.79296875 C-168.39879155 1633.85319448 -157.92354038 1636.88629019 -147.43408203 1639.87353516 C-140.79825875 1641.76569782 -134.1765582 1643.70271266 -127.55859375 1645.65625 C-113.53657396 1649.79420353 -99.4965337 1653.86876064 -85.43579102 1657.87304688 C-78.79939854 1659.76537436 -72.17712654 1661.70254489 -65.55859375 1663.65625 C-60.12521876 1665.25966046 -54.68797103 1666.84975551 -49.25 1668.4375 C-48.23123779 1668.73503174 -47.21247559 1669.03256348 -46.1628418 1669.33911133 C-41.23254334 1670.77625333 -36.29979377 1672.20348151 -31.359375 1673.60546875 C-30.00344238 1673.99037476 -30.00344238 1673.99037476 -28.62011719 1674.38305664 C-26.96508976 1674.85171377 -25.30955493 1675.31858609 -23.65332031 1675.78295898 C-15.71108913 1678.03027575 -7.89045315 1680.53423339 0 1683 C0 1127.61 0 572.22 0 0 Z " fill="#EBAB56" transform="translate(1823,695)"/>
<path d="M0 0 C4.00750997 1.12111477 8.01491793 2.24259373 12.02230835 3.36413574 C13.15065063 3.67978863 14.2789929 3.99544151 15.44152737 4.32065964 C23.33618002 6.53038366 31.2238088 8.76194883 39.1015625 11.03125 C40.92170113 11.55458168 40.92170113 11.55458168 42.77861023 12.08848572 C46.04555092 13.02803932 49.31210396 13.9689332 52.57852554 14.91028976 C54.67055412 15.51312683 56.76268196 16.11561842 58.85482788 16.7180481 C86.05386719 24.55103346 113.23103384 32.45871761 140.40478516 40.37890625 C143.75552335 41.35550478 147.10627189 42.33206782 150.45703125 43.30859375 C151.69536209 43.66949411 151.69536209 43.66949411 152.95870972 44.03768539 C169.43334893 48.83865254 185.91421204 53.61799898 202.39696884 58.39101028 C227.77104727 65.73876295 253.13775414 73.11150941 278.5 80.5 C303.01596627 87.64186068 327.53552485 94.77103564 352.0625 101.875 C378.97026896 109.6685347 405.87185568 117.48318136 432.77115631 125.30589294 C457.82303661 132.59128064 482.87775154 139.8667238 507.9375 147.125 C533.30657704 154.47286977 558.66745849 161.84861732 584.02516937 169.23561096 C607.69945749 176.13211026 631.37762663 183.01494101 655.0625 189.875 C681.97026896 197.6685347 708.87185568 205.48318136 735.77115631 213.30589294 C760.82303661 220.59128064 785.87775154 227.8667238 810.9375 235.125 C836.30657704 242.47286977 861.66745849 249.84861732 887.02516937 257.23561096 C910.69945749 264.13211026 934.37762663 271.01494101 958.0625 277.875 C984.97026896 285.6685347 1011.87185568 293.48318136 1038.77115631 301.30589294 C1063.82303661 308.59128064 1088.87775154 315.8667238 1113.9375 323.125 C1139.30657704 330.47286977 1164.66745849 337.84861732 1190.02516937 345.23561096 C1213.69945749 352.13211026 1237.37762663 359.01494101 1261.0625 365.875 C1287.97026896 373.6685347 1314.87185568 381.48318136 1341.77115631 389.30589294 C1366.82303661 396.59128064 1391.87775154 403.8667238 1416.9375 411.125 C1442.30657704 418.47286977 1467.66745849 425.84861732 1493.02516937 433.23561096 C1516.69945749 440.13211026 1540.37762663 447.01494101 1564.0625 453.875 C1590.96565609 461.66719863 1617.86264896 469.48044431 1644.7573204 477.30187607 C1664.54201416 483.05556382 1684.3269793 488.8082716 1704.1171875 494.54296875 C1704.87878426 494.76366657 1705.64038101 494.9843644 1706.42505646 495.21175003 C1712.8871641 497.08427731 1719.34934748 498.95654293 1725.81201172 500.82714844 C1751.21888328 508.1811692 1776.60807999 515.59402333 1802 523 C1802 1128.22 1802 1733.44 1802 2357 C1791.87299703 2354.7495549 1791.87299703 2354.7495549 1788.37109375 2353.73828125 C1787.17939575 2353.39615601 1787.17939575 2353.39615601 1785.96362305 2353.04711914 C1785.13000244 2352.80469482 1784.29638184 2352.56227051 1783.4375 2352.3125 C1782.08555542 2351.92276001 1782.08555542 2351.92276001 1780.70629883 2351.52514648 C1777.80318149 2350.68689967 1774.90142469 2349.84408578 1772 2349 C1770.55270508 2348.57944336 1770.55270508 2348.57944336 1769.07617188 2348.15039062 C1763.06530636 2346.40272048 1757.05646957 2344.64816256 1751.04833984 2342.89111328 C1746.03293687 2341.42497354 1741.01643195 2339.96261444 1736 2338.5 C1729.96428198 2336.74019773 1723.92881959 2334.97954299 1717.89453125 2333.21484375 C1708.43704419 2330.45034753 1698.97652578 2327.69858949 1689.5 2325 C1679.00234309 2322.01062739 1668.52450874 2318.9548196 1658.04833984 2315.89111328 C1654.03046229 2314.71657756 1650.01185855 2313.54453979 1645.99316406 2312.37280273 C1643.99634633 2311.79053329 1641.99960161 2311.2080134 1640.00292969 2310.62524414 C1634.9914309 2309.16267306 1629.97905315 2307.70325299 1624.96484375 2306.25 C1616.11085742 2303.68055166 1607.26586636 2301.09426132 1598.45678711 2298.37426758 C1588.02647491 2295.15408067 1577.54491835 2292.21853912 1566.99536133 2289.4140625 C1559.60309247 2287.44531484 1552.29168268 2285.31402715 1545 2283 C1532.83390825 2279.2098325 1520.64422394 2275.57464296 1508.33764648 2272.26782227 C1498.5256112 2269.62367273 1488.78052963 2266.75982799 1479.03222656 2263.89111328 C1474.02386356 2262.41925137 1469.01177722 2260.96018519 1464 2259.5 C1457.96424347 2257.74033006 1451.92881946 2255.97954295 1445.89453125 2254.21484375 C1436.43704419 2251.45034753 1426.97652578 2248.69858949 1417.5 2246 C1407.00234309 2243.01062739 1396.52450874 2239.9548196 1386.04833984 2236.89111328 C1381.03293687 2235.42497354 1376.01643195 2233.96261444 1371 2232.5 C1364.96428198 2230.74019773 1358.92881959 2228.97954299 1352.89453125 2227.21484375 C1343.43704419 2224.45034753 1333.97652578 2221.69858949 1324.5 2219 C1314.00234309 2216.01062739 1303.52450874 2212.9548196 1293.04833984 2209.89111328 C1289.03046229 2208.71657756 1285.01185855 2207.54453979 1280.99316406 2206.37280273 C1278.99634633 2205.79053329 1276.99960161 2205.2080134 1275.00292969 2204.62524414 C1269.9914309 2203.16267306 1264.97905315 2201.70325299 1259.96484375 2200.25 C1250.07929924 2197.38131965 1240.21310998 2194.46512375 1230.375 2191.4375 C1222.06836729 2188.88552176 1213.72667644 2186.5220066 1205.33496094 2184.26708984 C1195.52381538 2181.62321124 1185.77963746 2178.75956544 1176.03222656 2175.89111328 C1171.02386356 2174.41925137 1166.01177722 2172.96018519 1161 2171.5 C1154.96424347 2169.74033006 1148.92881946 2167.97954295 1142.89453125 2166.21484375 C1133.43704419 2163.45034753 1123.97652578 2160.69858949 1114.5 2158 C1104.00234309 2155.01062739 1093.52450874 2151.9548196 1083.04833984 2148.89111328 C1078.03293687 2147.42497354 1073.01643195 2145.96261444 1068 2144.5 C1061.96428198 2142.74019773 1055.92881959 2140.97954299 1049.89453125 2139.21484375 C1040.43704419 2136.45034753 1030.97652578 2133.69858949 1021.5 2131 C1011.00234309 2128.01062739 1000.52450874 2124.9548196 990.04833984 2121.89111328 C985.03293687 2120.42497354 980.01643195 2118.96261444 975 2117.5 C968.96428198 2115.74019773 962.92881959 2113.97954299 956.89453125 2112.21484375 C947.43704419 2109.45034753 937.97652578 2106.69858949 928.5 2104 C918.00234309 2101.01062739 907.52450874 2097.9548196 897.04833984 2094.89111328 C893.03046229 2093.71657756 889.01185855 2092.54453979 884.99316406 2091.37280273 C882.99634633 2090.79053329 880.99960161 2090.2080134 879.00292969 2089.62524414 C873.9914309 2088.16267306 868.97905315 2086.70325299 863.96484375 2085.25 C854.07929924 2082.38131965 844.21310998 2079.46512375 834.375 2076.4375 C826.06836729 2073.88552176 817.72667644 2071.5220066 809.33496094 2069.26708984 C799.52381538 2066.62321124 789.77963746 2063.75956544 780.03222656 2060.89111328 C775.02386356 2059.41925137 770.01177722 2057.96018519 765 2056.5 C758.96424347 2054.74033006 752.92881946 2052.97954295 746.89453125 2051.21484375 C737.43704419 2048.45034753 727.97652578 2045.69858949 718.5 2043 C708.00234309 2040.01062739 697.52450874 2036.9548196 687.04833984 2033.89111328 C682.03293687 2032.42497354 677.01643195 2030.96261444 672 2029.5 C665.96428198 2027.74019773 659.92881959 2025.97954299 653.89453125 2024.21484375 C644.43704419 2021.45034753 634.97652578 2018.69858949 625.5 2016 C615.00234309 2013.01062739 604.52450874 2009.9548196 594.04833984 2006.89111328 C590.03046229 2005.71657756 586.01185855 2004.54453979 581.99316406 2003.37280273 C579.99634633 2002.79053329 577.99960161 2002.2080134 576.00292969 2001.62524414 C570.9914309 2000.16267306 565.97905315 1998.70325299 560.96484375 1997.25 C551.07929924 1994.38131965 541.21310998 1991.46512375 531.375 1988.4375 C523.06836729 1985.88552176 514.72667644 1983.5220066 506.33496094 1981.26708984 C496.52381538 1978.62321124 486.77963746 1975.75956544 477.03222656 1972.89111328 C472.02386356 1971.41925137 467.01177722 1969.96018519 462 1968.5 C455.96424347 1966.74033006 449.92881946 1964.97954295 443.89453125 1963.21484375 C434.43704419 1960.45034753 424.97652578 1957.69858949 415.5 1955 C405.00234309 1952.01062739 394.52450874 1948.9548196 384.04833984 1945.89111328 C379.03293687 1944.42497354 374.01643195 1942.96261444 369 1941.5 C362.96428198 1939.74019773 356.92881959 1937.97954299 350.89453125 1936.21484375 C341.43704419 1933.45034753 331.97652578 1930.69858949 322.5 1928 C312.00234309 1925.01062739 301.52450874 1921.9548196 291.04833984 1918.89111328 C285.02689492 1917.1308799 279.00422469 1915.37483528 272.98095703 1913.62084961 C268.0901567 1912.1960487 263.2011959 1910.76559637 258.31640625 1909.3203125 C247.93683568 1906.25743545 237.53337465 1903.31466418 227.08362579 1900.49989891 C208.73178253 1895.54757435 190.48308999 1890.26022639 172.24193954 1884.91699982 C167.95142678 1883.66097887 163.65990385 1882.40841953 159.3684082 1881.15576172 C158.49827371 1880.90176605 157.62813921 1880.64777039 156.731637 1880.38607788 C154.96683796 1879.87092855 153.20203598 1879.35578931 151.43723106 1878.8406601 C148.78748461 1878.067086 146.13784824 1877.29313586 143.48823547 1876.519104 C128.53365238 1872.15113932 113.57068507 1867.81244445 98.60513878 1863.48221588 C75.61186056 1856.82913205 52.6224485 1850.16247703 29.64639282 1843.45013428 C27.06736373 1842.69677806 24.48790643 1841.94491681 21.90805054 1841.19439697 C18.39089982 1840.17049508 14.87497413 1839.14249583 11.359375 1838.11328125 C10.31519913 1837.81016525 9.27102325 1837.50704926 8.19520569 1837.19474792 C6.78325172 1836.77990898 6.78325172 1836.77990898 5.34277344 1836.35668945 C4.52274841 1836.11723099 3.70272339 1835.87777252 2.85784912 1835.63105774 C1 1835 1 1835 0 1834 C-0.09777878 1832.35259596 -0.12478365 1830.70096348 -0.12467116 1829.05066025 C-0.12820051 1827.4279151 -0.12820051 1827.4279151 -0.13180115 1825.77238722 C-0.12929228 1824.56582558 -0.1267834 1823.35926394 -0.1241985 1822.11613983 C-0.12547658 1820.84128203 -0.12675467 1819.56642424 -0.12807148 1818.25293439 C-0.13151199 1814.67602701 -0.12864093 1811.09914709 -0.12483745 1807.52224108 C-0.12179305 1803.63080401 -0.12452685 1799.73937047 -0.12654433 1795.84793332 C-0.12928997 1788.98860862 -0.12827547 1782.1292922 -0.12488318 1775.26996791 C-0.11982459 1765.00129878 -0.12050639 1754.73263562 -0.12234976 1744.4639657 C-0.12532238 1726.96740553 -0.12353476 1709.47084869 -0.11920547 1691.97428894 C-0.11483461 1674.23174056 -0.11263205 1656.48919391 -0.11310768 1638.74664497 C-0.11313637 1637.62798478 -0.11316507 1636.50932459 -0.11319463 1635.3567656 C-0.11335099 1629.65319103 -0.11354294 1623.94961645 -0.11374746 1618.24604188 C-0.11515674 1576.91234306 -0.11171799 1535.57864578 -0.10573006 1494.24494743 C-0.09981226 1453.29773895 -0.0959559 1412.35053113 -0.09487724 1371.40332222 C-0.09482563 1369.49746208 -0.09482563 1369.49746208 -0.09477296 1367.55309972 C-0.09445978 1355.94876419 -0.09417208 1344.34442866 -0.09391499 1332.74009313 C-0.09327551 1303.89002251 -0.09231613 1275.03995192 -0.09113979 1246.18988132 C-0.09105982 1244.21899389 -0.09105982 1244.21899389 -0.09097823 1242.20829054 C-0.08926019 1200.32090998 -0.08621839 1158.43352964 -0.08213139 1116.54614925 C-0.0820651 1115.86664346 -0.08199881 1115.18713766 -0.08193051 1114.48704079 C-0.07990977 1093.80179837 -0.0777914 1073.11655596 -0.07565394 1052.43131356 C-0.073289 1029.54041103 -0.0709407 1006.6495085 -0.06866455 983.75860596 C-0.06859605 983.07027969 -0.06852755 982.38195343 -0.06845698 981.67276879 C-0.06195804 916.3121126 -0.05814638 850.95145634 -0.05503077 785.59079991 C-0.05489862 782.82276468 -0.0547657 780.05472946 -0.05463275 777.28669424 C-0.05340936 751.81486895 -0.05221752 726.34304367 -0.05106533 700.87121838 C-0.05103469 700.19390671 -0.05100405 699.51659504 -0.05097248 698.81875878 C-0.05087972 696.76804133 -0.05078697 694.71732388 -0.05069422 692.66660643 C-0.04821781 637.91633303 -0.04547588 583.16605964 -0.04255217 528.41578626 C-0.04241293 525.80829878 -0.04227388 523.2008113 -0.04213501 520.59332383 C-0.03588007 403.17541554 -0.02654155 285.75750757 -0.01586914 168.33959961 C-0.01576921 167.23989356 -0.01566927 166.14018751 -0.01556631 165.00715703 C-0.01056561 110.00477134 -0.00539152 55.00238566 0 0 Z M66 79 C66 644.95 66 1210.9 66 1794 C70.72695612 1795.77260854 75.18340931 1797.42774742 79.98852539 1798.81152344 C81.68159821 1799.30171211 81.68159821 1799.30171211 83.40887451 1799.80180359 C84.62617249 1800.15080215 85.84347046 1800.49980072 87.09765625 1800.859375 C88.41791167 1801.24045256 89.73807923 1801.62183465 91.0581665 1802.00349426 C93.90063409 1802.82472015 96.74363623 1803.64405873 99.58706665 1804.46194458 C104.11728092 1805.76519346 108.64606012 1807.07337841 113.17456055 1808.38256836 C114.74525238 1808.83660102 116.31594637 1809.2906262 117.88664246 1809.74464417 C118.67702597 1809.97311098 119.46740948 1810.2015778 120.281744 1810.43696785 C122.72955484 1811.14435667 125.17747925 1811.85135109 127.6254425 1812.55821228 C144.54550721 1817.44405416 161.46189498 1822.34252523 178.37374783 1827.25671959 C183.63281982 1828.7848118 188.89271185 1830.31003518 194.153265 1831.83302021 C197.44797534 1832.78758766 200.74191083 1833.74480699 204.0356369 1834.70276451 C205.56491941 1835.14699549 207.0945078 1835.59017509 208.6244278 1836.03220558 C215.8504421 1838.12064782 222.99099207 1840.2578328 230 1843 C231.7568971 1843.56154625 233.52075069 1844.1021406 235.29296875 1844.61328125 C236.24228271 1844.88865723 237.19159668 1845.1640332 238.16967773 1845.44775391 C239.16555908 1845.73312012 240.16144043 1846.01848633 241.1875 1846.3125 C242.23687744 1846.61591309 243.28625488 1846.91932617 244.36743164 1847.23193359 C252.09397605 1849.46279219 259.82750434 1851.6694831 267.56201172 1853.87255859 C274.19921943 1855.76476159 280.82215546 1857.70233294 287.44140625 1859.65625 C301.46342604 1863.79420353 315.5034663 1867.86876064 329.56420898 1871.87304688 C336.20060146 1873.76537436 342.82287346 1875.70254489 349.44140625 1877.65625 C363.46342604 1881.79420353 377.5034663 1885.86876064 391.56420898 1889.87304688 C398.20060146 1891.76537436 404.82287346 1893.70254489 411.44140625 1895.65625 C425.46342604 1899.79420353 439.5034663 1903.86876064 453.56420898 1907.87304688 C458.82047384 1909.37183925 464.07010564 1910.89090532 469.3125 1912.4375 C469.98442383 1912.63561279 470.65634766 1912.83372559 471.34863281 1913.0378418 C472.77573424 1913.45876028 474.20281685 1913.87974257 475.62988281 1914.30078125 C476.41202148 1914.53152344 477.19416016 1914.76226563 478 1915 C478.89557617 1915.26425781 479.79115234 1915.52851562 480.71386719 1915.80078125 C491.55293234 1918.99453203 502.39835128 1922.13447869 513.3125 1925.0625 C520.90873239 1927.10369205 528.41252728 1929.34146124 535.89892578 1931.75244141 C543.3800282 1934.15156969 550.92445402 1936.29850723 558.484375 1938.43359375 C564.31419599 1940.08147029 570.12524238 1941.79141965 575.9375 1943.5 C583.56048505 1945.73771693 591.20068346 1947.88320032 598.875 1949.9375 C608.11861843 1952.41810839 617.25584367 1955.192974 626.39355469 1958.03662109 C634.80514269 1960.64948154 643.25060871 1963.10970611 651.7265625 1965.50390625 C657.49479543 1967.13377501 663.24742565 1968.81583855 669 1970.5 C676.63851984 1972.73451367 684.28297137 1974.94595301 691.9375 1977.125 C699.45023866 1979.26441689 706.94960893 1981.44476851 714.44140625 1983.65625 C728.46342604 1987.79420353 742.5034663 1991.86876064 756.56420898 1995.87304688 C763.20060146 1997.76537436 769.82287346 1999.70254489 776.44140625 2001.65625 C790.46342604 2005.79420353 804.5034663 2009.86876064 818.56420898 2013.87304688 C825.20060146 2015.76537436 831.82287346 2017.70254489 838.44140625 2019.65625 C852.46342604 2023.79420353 866.5034663 2027.86876064 880.56420898 2031.87304688 C886.50257285 2033.56633569 892.43078543 2035.29128421 898.35302734 2037.04003906 C905.44361762 2039.13374975 912.5410025 2041.20393789 919.6394043 2043.27099609 C924.79397482 2044.77220146 929.94732194 2046.2772871 935.09765625 2047.79296875 C944.66622154 2050.60433937 954.2413746 2053.35717385 963.875 2055.9375 C973.118581 2058.41826165 982.25583654 2061.19297178 991.39355469 2064.03662109 C999.80514269 2066.64948154 1008.25060871 2069.10970611 1016.7265625 2071.50390625 C1022.49479543 2073.13377501 1028.24742565 2074.81583855 1034 2076.5 C1041.63851984 2078.73451367 1049.28297137 2080.94595301 1056.9375 2083.125 C1064.45023866 2085.26441689 1071.94960893 2087.44476851 1079.44140625 2089.65625 C1093.46342604 2093.79420353 1107.5034663 2097.86876064 1121.56420898 2101.87304688 C1128.20060146 2103.76537436 1134.82287346 2105.70254489 1141.44140625 2107.65625 C1155.46342604 2111.79420353 1169.5034663 2115.86876064 1183.56420898 2119.87304688 C1190.20060146 2121.76537436 1196.82287346 2123.70254489 1203.44140625 2125.65625 C1217.46342604 2129.79420353 1231.5034663 2133.86876064 1245.56420898 2137.87304688 C1251.50257285 2139.56633569 1257.43078543 2141.29128421 1263.35302734 2143.04003906 C1270.44361762 2145.13374975 1277.5410025 2147.20393789 1284.6394043 2149.27099609 C1289.79397482 2150.77220146 1294.94732194 2152.2772871 1300.09765625 2153.79296875 C1309.66622154 2156.60433937 1319.2413746 2159.35717385 1328.875 2161.9375 C1338.118581 2164.41826165 1347.25583654 2167.19297178 1356.39355469 2170.03662109 C1364.80514269 2172.64948154 1373.25060871 2175.10970611 1381.7265625 2177.50390625 C1387.49479543 2179.13377501 1393.24742565 2180.81583855 1399 2182.5 C1406.63851984 2184.73451367 1414.28297137 2186.94595301 1421.9375 2189.125 C1429.45023866 2191.26441689 1436.94960893 2193.44476851 1444.44140625 2195.65625 C1458.46342604 2199.79420353 1472.5034663 2203.86876064 1486.56420898 2207.87304688 C1493.20060146 2209.76537436 1499.82287346 2211.70254489 1506.44140625 2213.65625 C1520.46342604 2217.79420353 1534.5034663 2221.86876064 1548.56420898 2225.87304688 C1555.20060146 2227.76537436 1561.82287346 2229.70254489 1568.44140625 2231.65625 C1582.46342604 2235.79420353 1596.5034663 2239.86876064 1610.56420898 2243.87304688 C1615.82047384 2245.37183925 1621.07010564 2246.89090532 1626.3125 2248.4375 C1626.98442383 2248.63561279 1627.65634766 2248.83372559 1628.34863281 2249.0378418 C1629.77573424 2249.45876028 1631.20281685 2249.87974257 1632.62988281 2250.30078125 C1633.41202148 2250.53152344 1634.19416016 2250.76226563 1635 2251 C1636.34336426 2251.39638672 1636.34336426 2251.39638672 1637.71386719 2251.80078125 C1648.55293234 2254.99453203 1659.39835128 2258.13447869 1670.3125 2261.0625 C1677.90057766 2263.10150078 1685.39744036 2265.33393969 1692.87475586 2267.74584961 C1699.72289346 2269.9446477 1706.62397489 2271.92773605 1713.54663086 2273.87744141 C1719.60368654 2275.58652874 1725.61187879 2277.40226008 1731.6015625 2279.3359375 C1734.06709278 2280.13341711 1734.06709278 2280.13341711 1737 2280 C1737.00550256 2230.79394534 1737.01077167 2181.58789065 1737.01586914 2132.38183594 C1737.01596894 2131.4186766 1737.01606874 2130.45551726 1737.01617156 2129.46317128 C1737.02687391 2026.11348883 1737.03609299 1922.76380636 1737.04234314 1819.41412354 C1737.04248259 1817.11441392 1737.04262204 1814.81470431 1737.04276149 1812.51499469 C1737.04568515 1764.22706545 1737.04840176 1715.93913621 1737.05087968 1667.65120694 C1737.05212492 1643.38900354 1737.05340989 1619.12680013 1737.05473244 1594.86459673 C1737.05493169 1591.20508807 1737.05512981 1587.54557941 1737.05532788 1583.88607075 C1737.05838227 1527.63799557 1737.06228046 1471.38992061 1737.06866455 1415.1418457 C1737.0688699 1413.33237353 1737.0688699 1413.33237353 1737.0690794 1411.48634635 C1737.07129134 1392.0411257 1737.07357511 1372.59590506 1737.07586844 1353.15068441 C1737.08248534 1297.03638087 1737.08855751 1240.92207749 1737.09113979 1184.80777359 C1737.09119333 1183.65002257 1737.09124686 1182.49227154 1737.09130202 1181.29943715 C1737.09246869 1155.86349076 1737.09336313 1130.42754436 1737.09400098 1104.99159795 C1737.09426255 1094.75182712 1737.09456317 1084.51205629 1737.09487724 1074.27228546 C1737.09491067 1073.15169579 1737.0949441 1072.03110612 1737.09497854 1070.87655918 C1737.09606893 1034.97125937 1737.10031918 999.0659608 1737.10628221 963.16066149 C1737.11229086 926.89143055 1737.11508732 890.62220081 1737.11362399 854.35296935 C1737.113421 849.30259653 1737.11325358 844.25222371 1737.11310768 839.20185089 C1737.1130778 838.21212363 1737.11304792 837.22239638 1737.11301713 836.20267739 C1737.11266416 821.6766415 1737.11510365 807.15060801 1737.11920547 792.62457275 C1737.1250733 771.32195916 1737.12674639 750.01934952 1737.12025452 728.71673584 C1737.1198905 727.47975404 1737.1198905 727.47975404 1737.11951914 726.2177827 C1737.10270333 672.14056514 1736.83144988 618.07179895 1736 564 C1731.83118768 562.19146064 1727.7721726 560.52471205 1723.40039062 559.28027344 C1722.33125427 558.97338593 1721.26211792 558.66649841 1720.1605835 558.35031128 C1718.42593842 557.85979782 1718.42593842 557.85979782 1716.65625 557.359375 C1714.75320532 556.81477006 1712.85016173 556.27016134 1710.947155 555.72542381 C1708.89602498 555.13916358 1706.84428072 554.55509941 1704.7923584 553.97161865 C1698.09654193 552.06718712 1691.40512004 550.14739293 1684.71321869 548.22925949 C1682.33310148 547.54715795 1679.95283904 546.86556477 1677.5725708 546.18399048 C1660.76705509 541.36964088 1643.98266742 536.48323818 1627.20015717 531.58940506 C1623.07253473 530.38589273 1618.9447064 529.18308701 1614.81689453 527.98022461 C1613.1391898 527.49132076 1611.46148594 527.00241388 1609.78378296 526.51350403 C1608.94821239 526.27000528 1608.11264183 526.02650654 1607.25175095 525.77562904 C1604.70367216 525.0330389 1602.15562086 524.29035447 1599.60757446 523.5476532 C1580.77939438 518.05992138 1561.94792174 512.58351935 1543.11582947 507.10923004 C1540.37217409 506.31167854 1537.6285309 505.5140851 1534.8848877 504.7164917 C1509.71308654 497.39914515 1484.5377082 490.09422765 1459.35906982 482.80044556 C1433.97716491 475.44765038 1408.60168535 468.07284312 1383.22742844 460.6937027 C1358.17601295 453.40847357 1333.12177725 446.13313972 1308.0625 438.875 C1282.69342296 431.52713023 1257.33254151 424.15138268 1231.97483063 416.76438904 C1208.30054251 409.86788974 1184.62237337 402.98505899 1160.9375 396.125 C1134.95374117 388.59909452 1108.97559972 381.05401817 1083 373.5 C1057.860306 366.18915226 1032.71878189 358.88474776 1007.57149124 351.60007095 C981.39779739 344.018058 955.22871287 336.42029097 929.0625 328.8125 C928.16357655 328.55114384 927.26465309 328.28978767 926.33848953 328.02051163 C911.6335204 323.74511599 896.9287707 319.46896586 882.2240448 315.19273376 C868.46196529 311.19063803 854.69981019 307.18880241 840.9375 303.1875 C840.03720692 302.925741 839.13691383 302.66398201 838.20933914 302.39429092 C812.26223058 294.85029993 786.31164983 287.31840652 760.35714722 279.79989624 C734.97484129 272.44698782 709.5990002 265.07193257 684.2243042 257.69281006 C660.00980869 250.6511412 635.79327064 243.61664531 611.57149124 236.60007095 C585.39779739 229.018058 559.22871287 221.42029097 533.0625 213.8125 C532.16357655 213.55114384 531.26465309 213.28978767 530.33848953 213.02051163 C515.6335204 208.74511599 500.9287707 204.46896586 486.2240448 200.19273376 C472.46196529 196.19063803 458.69981019 192.18880241 444.9375 188.1875 C444.03720692 187.925741 443.13691383 187.66398201 442.20933914 187.39429092 C416.26223058 179.85029993 390.31164983 172.31840652 364.35714722 164.79989624 C338.97588173 157.44728922 313.60104533 150.07265699 288.22742844 142.6937027 C263.17601293 135.40847356 238.12177318 128.13315384 213.0625 120.875 C183.67054557 112.36190895 154.28876238 103.81404534 124.91041088 95.25413513 C121.04907567 94.12911717 117.1875893 93.00462426 113.32572937 91.88140869 C106.59933221 89.92470741 99.87388136 87.96510107 93.15346718 85.98793125 C90.2461016 85.13299761 87.33787652 84.28101214 84.4295311 83.42941856 C83.06827347 83.02995416 81.70743601 82.62905481 80.34704971 82.22663307 C78.48877858 81.67701788 76.62894906 81.13267982 74.76904297 80.58862305 C73.72231415 80.28039108 72.67558533 79.97215912 71.59713745 79.65458679 C68.96155572 78.87780077 68.96155572 78.87780077 66 79 Z " fill="#944E25" transform="translate(21,21)"/>
<path d="M0 0 C23.43 0 46.86 0 71 0 C74.83602053 11.62411954 78.67044358 23.24875115 82.5 34.875 C82.78721169 35.74694756 83.07442337 36.61889511 83.37033844 37.51726532 C90.28954895 58.52662112 97.18448867 79.54145201 103.875 100.625 C111.20431274 123.71784214 118.80451292 146.71964518 126.39996719 169.72596359 C133.37447504 190.85267727 140.33313219 211.98112787 147.0625 233.1875 C153.92877837 254.82195051 161.01823784 276.38115459 168.125 297.9375 C168.70218096 299.68841487 169.27935992 301.43933039 169.85653687 303.19024658 C170.99176816 306.6339168 172.12705032 310.07757025 173.26237488 313.52120972 C173.53732473 314.35518154 173.81227459 315.18915337 174.09555626 316.04839706 C174.64515366 317.71536967 175.19477639 319.38233392 175.74442482 321.0492897 C179.97510362 333.8803567 184.19512962 346.71477241 188.375 359.5625 C188.6359848 360.36455872 188.8969696 361.16661743 189.16586304 361.99298096 C192.62131469 372.61913729 196.04951925 383.25402094 199.47265625 393.890625 C200.91588327 398.37423984 202.35924888 402.85781 203.80284882 407.34130478 C204.2251847 408.65305916 204.64747186 409.96482923 205.06970978 411.27661514 C212.45429103 434.21775267 219.95269814 457.12019739 227.49465561 480.01002884 C233.97625408 499.6827229 240.390003 519.37316521 246.65979004 539.11462402 C253.73659562 561.37432626 261.07744518 583.54635443 268.40000916 605.72608948 C275.66062794 627.71937353 282.88410857 649.7199636 289.88720703 671.796875 C296.59355967 692.91878609 303.55251342 713.95649393 310.5 735 C318.07947868 757.95783042 325.63308408 780.9195508 332.94351196 803.96478271 C340.53233768 827.86889243 348.41836265 851.67587511 356.28493881 875.48968983 C357.39051615 878.83690388 358.49527298 882.18438853 359.60001755 885.53187752 C360.35825285 887.82786582 361.11798341 890.12335522 361.87783813 892.41880798 C364.24478202 899.5799795 366.5793645 906.75078808 368.85083008 913.94287109 C369.17618886 914.96382842 369.17618886 914.96382842 369.50812054 916.00541115 C371 920.76550912 371 920.76550912 371 923 C345.26 923 319.52 923 293 923 C289.08125 911.264375 285.1625 899.52875 281.125 887.4375 C279.91086426 883.80419678 278.69672852 880.17089355 277.44580078 876.42749023 C272.603649 861.92157264 267.78396518 847.41112474 263.1171875 832.84765625 C259.10321643 820.32727933 254.97619823 807.84635354 250.8125 795.375 C250.33789148 793.95332614 250.33789148 793.95332614 249.85369492 792.50293159 C247.57127732 785.66790274 245.28594148 778.83385097 243 772 C240.39388416 764.20898373 237.78899477 756.41756066 235.1875 748.625 C234.87014767 747.67450523 234.55279533 746.72401047 234.22582626 745.74471283 C230.44570462 734.41667154 226.71028646 723.07699439 223.0703125 711.703125 C218.9008575 698.67752866 214.58421724 685.70335366 210.2421875 672.734375 C209.90219978 671.71833694 209.56221207 670.70229889 209.21192169 669.6554718 C206.04385112 660.18803624 202.87301466 650.72153165 199.6953125 641.25732422 C197.93580198 636.01631295 196.18062394 630.77386802 194.42825699 625.53046417 C193.76565805 623.5507091 193.10139476 621.57151024 192.43542099 619.59288788 C191.51519256 616.85852288 190.60046555 614.12237641 189.68701172 611.38574219 C189.41284927 610.57561172 189.13868683 609.76548126 188.85621643 608.93080139 C187.83067494 605.84302677 187 603.27659596 187 600 C88 600.33 -11 600.66 -113 601 C-128.3110511 647.35435282 -128.3110511 647.35435282 -143.04443359 693.89697266 C-144.37914152 698.23119282 -145.74689942 702.55441124 -147.125 706.875 C-147.42011475 707.80094971 -147.71522949 708.72689941 -148.01928711 709.6809082 C-154.31750114 729.41423693 -160.70717144 749.11781955 -167.125 768.8125 C-173.42661262 788.15182075 -179.7128452 807.49612505 -185.99163818 826.84286499 C-187.07405913 830.1779974 -188.156962 833.51297271 -189.24029541 836.84780884 C-190.53424116 840.83105711 -191.82719044 844.81462756 -193.11943054 848.79842949 C-193.59881539 850.27578053 -194.07852895 851.75302495 -194.55860901 853.23015022 C-197.14852964 861.19979369 -199.69651437 869.17959506 -202.14234924 877.19497681 C-203.50139038 881.6398419 -204.90461919 886.07040858 -206.3125 890.5 C-206.56966797 891.3146875 -206.82683594 892.129375 -207.09179688 892.96875 C-210.28440066 903.01760124 -213.66469508 912.99408524 -217 923 C-243.07 923 -269.14 923 -296 923 C-293.750259 911.75129502 -293.750259 911.75129502 -292.46630859 907.88476562 C-292.17715073 907.00394821 -291.88799286 906.1231308 -291.59007263 905.21562195 C-291.27933304 904.28852921 -290.96859344 903.36143646 -290.6484375 902.40625 C-290.31727432 901.40169266 -289.98611115 900.39713531 -289.64491272 899.36213684 C-288.93158273 897.19988921 -288.21571149 895.03847857 -287.49752808 892.87783813 C-285.56822581 887.07230782 -283.65841187 881.26036096 -281.74609375 875.44921875 C-281.35251175 874.25483688 -280.95892975 873.06045502 -280.55342102 871.82987976 C-276.44456954 859.34649771 -272.43221899 846.83279093 -268.4375 834.3125 C-267.95963043 832.81565674 -267.95963043 832.81565674 -267.47210693 831.28857422 C-266.24126109 827.43299332 -265.01076935 823.57730058 -263.78172302 819.72114563 C-262.14105564 814.57354238 -260.49698194 809.42705336 -258.84838867 804.28198242 C-258.30946739 802.59983894 -258.30946739 802.59983894 -257.75965881 800.88371277 C-257.07054069 798.73337138 -256.38106027 796.58314605 -255.69114685 794.43305969 C-253.90572122 788.86121013 -252.15029388 783.28210526 -250.4375 777.6875 C-248.33207128 770.8962518 -245.97499069 764.20897734 -243.59228516 757.51074219 C-241.41372319 751.3288195 -239.50057562 745.10290456 -237.703125 738.80102539 C-236.34980595 734.0862545 -234.76461311 729.522525 -233.03125 724.9375 C-231.70675972 721.16470951 -230.60441157 717.34201357 -229.5 713.5 C-227.88508837 707.88206501 -226.09925347 702.40770273 -224.03125 696.9375 C-222.70675972 693.16470951 -221.60441157 689.34201357 -220.5 685.5 C-218.88508837 679.88206501 -217.09925347 674.40770273 -215.03125 668.9375 C-213.70675972 665.16470951 -212.60441157 661.34201357 -211.5 657.5 C-210.14037226 652.7701435 -208.74164712 648.10693755 -207 643.5 C-205.46377049 639.42941218 -204.2069968 635.33749276 -203.01953125 631.15234375 C-199.14529764 617.76998519 -194.72538285 604.55163397 -190.41640472 591.30457306 C-188.42562241 585.18103011 -186.4410615 579.05546515 -184.45556641 572.9302063 C-183.95627733 571.38997847 -183.45690794 569.84977667 -182.9574585 568.30960083 C-178.56325886 554.75868947 -174.20634143 541.19614196 -169.875 527.625 C-163.95175563 509.07195209 -157.98491996 490.53321904 -152 472 C-145.97472537 453.34137647 -139.96659062 434.67749446 -134 416 C-127.82024969 396.65524189 -121.59466755 377.32549032 -115.35424805 358.00024414 C-109.5444561 340.00813402 -103.7534311 322.01023136 -98 304 C-91.82024969 284.65524189 -85.59466755 265.32549032 -79.35424805 246.00024414 C-73.5444561 228.00813402 -67.7534311 210.01023136 -62 192 C-56.03340902 173.32250441 -50.02500777 154.6587103 -44 136 C-37.91446664 117.1531793 -31.8435208 98.30185521 -25.8125 79.4375 C-25.49618622 78.44830566 -25.17987244 77.45911133 -24.85397339 76.43994141 C-23.25195794 71.42994626 -21.65029699 66.41983786 -20.04882812 61.40966797 C-19.55370728 59.86070831 -19.55370728 59.86070831 -19.04858398 58.28045654 C-18.31956296 55.99974099 -17.5905604 53.71901953 -16.86157227 51.43829346 C-14.48177657 43.99351808 -12.1002454 36.54930129 -9.71664429 29.10574341 C-8.95173156 26.7160257 -8.18742168 24.32611494 -7.42373657 21.93600464 C-6.36861664 18.63394066 -5.31150141 15.33252189 -4.25390625 12.03125 C-3.9380658 11.04117447 -3.62222534 10.05109894 -3.29681396 9.03102112 C-2.86287323 7.67858559 -2.86287323 7.67858559 -2.42016602 6.29882812 C-2.16864273 5.51254028 -1.91711945 4.72625244 -1.65797424 3.9161377 C-1 2 -1 2 0 0 Z " fill="#944E25" transform="translate(963,853)"/>
<path d="M0 0 C2 1 2 1 3.08154297 3.75292969 C3.46455566 4.96368164 3.84756836 6.17443359 4.2421875 7.421875 C4.45183136 8.07770569 4.66147522 8.73353638 4.87747192 9.40924072 C5.55044941 11.52063693 6.21277362 13.63521017 6.875 15.75 C7.31312011 17.12912309 7.75191507 18.50803198 8.19140625 19.88671875 C10.55088207 27.30700647 12.85402692 34.74437002 15.13720703 42.18847656 C16.24448325 45.79668057 17.36518878 49.40036817 18.5 53 C18.7357373 53.74781738 18.97147461 54.49563477 19.21435547 55.26611328 C22.64159929 66.08561385 26.16891301 76.87335638 29.68554688 87.6640625 C30.188806 89.21093623 30.69206135 90.75781118 31.1953125 92.3046875 C31.5295372 93.32766434 31.5295372 93.32766434 31.87051392 94.37130737 C33.23893625 98.58044038 34.55800595 102.80265147 35.85400391 107.03466797 C38.22226552 114.75615055 40.67931283 122.44847333 43.140625 130.140625 C43.6314685 131.67639283 44.12225079 133.21218023 44.61297607 134.74798584 C45.89812197 138.76948575 47.1841074 142.79071669 48.47027588 146.81188965 C49.75284544 150.82234161 51.03458179 154.83305984 52.31640625 158.84375 C56.02332655 170.44135397 59.73062558 182.03883595 63.44506836 193.6340332 C63.81367981 194.78494446 64.18229126 195.93585571 64.56207275 197.12164307 C65.23186994 199.21260921 65.90196899 201.3034787 66.57244873 203.39422607 C68.4068597 209.12082677 70.1998538 214.85741511 71.953125 220.609375 C74.27355847 228.12480879 76.68578171 235.61172446 79.07666016 243.10498047 C80.24680592 246.77382989 81.41448432 250.44346127 82.58172607 254.11323547 C83.44081028 256.81392612 84.30021565 259.51451437 85.15966797 262.21508789 C86.2982503 265.7932616 87.43582254 269.37175241 88.57202148 272.95068359 C92.82400376 286.33850725 97.11779789 299.71264954 101.42254639 313.08358765 C107.60051795 332.27625002 113.76076374 351.4744321 119.875 370.6875 C120.30475632 372.03693695 120.30475632 372.03693695 120.74319458 373.41363525 C123.5871219 382.34591366 126.41743024 391.28064774 129.14501953 400.24926758 C129.75601401 402.2150228 130.4164057 404.16569759 131.10888672 406.10424805 C132 409 132 409 132 413 C46.53 413 -38.94 413 -127 413 C-125.75451049 407.39529719 -124.61766627 402.55417221 -122.75 397.25 C-120.64536152 391.13746647 -118.80950725 384.97360652 -117.0625 378.75 C-113.54737783 366.26209575 -109.67847534 353.90678056 -105.5 341.625 C-103.20084301 334.80098452 -101.24348951 327.90196706 -99.30078125 320.96923828 C-97.68495968 315.25512437 -95.92279281 309.61776804 -94 304 C-91.81422692 297.61300074 -89.87516005 291.19005826 -88.0625 284.6875 C-86.07122533 277.55035235 -83.89016925 270.51356093 -81.5 263.5 C-79.13099919 256.54821465 -76.96893108 249.57551702 -75 242.5 C-73.0310655 235.42447066 -70.86880524 228.45185813 -68.5 221.5 C-65.82428986 213.64197739 -63.44053959 205.74007864 -61.20141602 197.74755859 C-57.9741232 186.26437543 -54.34158636 174.91656373 -50.5 163.625 C-48.20254672 156.80604123 -46.24624503 149.91227149 -44.30517578 142.98461914 C-42.42965688 136.35181833 -40.32463934 129.82406265 -38.10522461 123.29956055 C-36.29625614 117.95910666 -34.706258 112.58425986 -33.19140625 107.15234375 C-29.58445928 94.40866981 -25.65023843 81.7226651 -21.375 69.1875 C-19.09156254 62.45978829 -17.15441124 55.65352672 -15.22558594 48.81811523 C-12.96694469 40.82849633 -10.53003135 32.90814601 -8 25 C-7.6714502 23.97068359 -7.34290039 22.94136719 -7.00439453 21.88085938 C-4.67544684 14.58536058 -2.34020941 7.29189366 0 0 Z " fill="#EBAB56" transform="translate(997,967)"/>
</svg>
